PathFileType	4	(X/Y/Z)	4_coords_data.trc
DataRate	CameraRate	NumFrames	NumMarkers	Units	OrigDataRate	OrigDataStartFrame	OrigNumFrames
30.0	30.0	6	21	m	30.0	31	50
Frame#	Time	THUMB_TIP	THUMB_IP	THUMB_MCP	THUMB_CMC	INDEX_TIP	INDEX_DIP	INDEX_PIP	INDEX_MCP	MIDDLE_TIP	MIDDLE_DIP	MIDDLE_PIP	MIDDLE_MCP	RING_TIP	RING_DIP	RING_PIP	RING_MCP	PINKY_TIP	PINKY_DIP	PINKY_PIP	PINKY_MCP	WRIST
X1	Y1	Z1	X2	Y2	Z2	X3	Y3	Z3	X4	Y4	Z4	X5	Y5	Z5	X6	Y6	Z6	X7	Y7	Z7	X8	Y8	Z8	X9	Y9	Z9	X10	Y10	Z10	X11	Y11	Z11	X12	Y12	Z12	X13	Y13	Z13	X14	Y14	Z14	X15	Y15	Z15	X16	Y16	Z16	X17	Y17	Z17	X18	Y18	Z18	X19	Y19	Z19	X20	Y20	Z20	X21	Y21	Z21
30	1.0	-0.025171499252319336	-0.07040350341796875	1.00725	-0.038046199798583986	-0.05622280120849609	1.0296400146484375	-0.054424800872802735	-0.047430099487304686	1.0575	-0.061320499420166014	-0.014726699829101563	1.074239990234375	-0.022568300247192384	-0.02585129928588867	1.0252099609375	-0.02817569923400879	-0.028914699554443358	1.0051099853515626	-0.048595100402832034	-0.032511798858642575	0.9883729858398438	-0.08411990356445312	-0.029650699615478514	1.0149600219726562	-0.027974800109863283	-0.011786700248718262	1.033030029296875	-0.023621599197387697	-0.010095199584960938	1.011510009765625	-0.04219089889526367	-0.008504389762878418	0.9862470092773438	-0.08489630126953125	-0.003565710067749023	1.008760009765625	-0.029246599197387695	0.0058815598487854	1.0395899658203125	-0.023295099258422852	0.009862179756164552	1.0194299926757813	-0.03720949935913086	0.014718199729919433	0.9929619750976563	-0.08046659851074218	0.02017919921875	1.0109099731445312	-0.036546398162841796	0.019858999252319334	1.0373900146484376	-0.031239700317382813	0.027632999420166015	1.02202001953125	-0.04136999893188477	0.03787680053710937	1.0052999877929687	-0.0753031005859375	0.0428223991394043	1.0170900268554688	-0.0897029037475586	0.013392000198364258	1.0944000244140626
31	1.0333333333333334	-0.021939899444580076	-0.06927320098876953	1.010260009765625	-0.03591439819335938	-0.05592219924926758	1.0321600341796875	-0.05362179946899414	-0.047626800537109375	1.05956005859375	-0.06199620056152344	-0.015334699630737305	1.076300048828125	-0.014647299766540528	-0.028290000915527344	1.0153300170898438	-0.02595719909667969	-0.031214599609375	0.9978400268554688	-0.04956729888916016	-0.03406159973144531	0.9864810180664062	-0.08253060150146484	-0.030337699890136717	1.015739990234375	-0.017547399520874023	-0.014215999603271485	1.025	-0.01955929946899414	-0.01169600009918213	1.002760009765625	-0.04289810180664062	-0.009002599716186523	0.9831229858398437	-0.08335289764404297	-0.0041130599975585935	1.0098800048828125	-0.016287799835205077	0.005700870037078858	1.0298800048828125	-0.017356700897216797	0.01059939956665039	1.008739990234375	-0.03814950180053711	0.01569480037689209	0.9879609985351563	-0.0785740966796875	0.019437000274658202	1.0116500244140625	-0.026928600311279298	0.01987579917907715	1.0304000244140625	-0.026758100509643553	0.029486200332641602	1.0161400146484374	-0.040787101745605465	0.03984749984741211	1.002510009765625	-0.07308789825439453	0.04215449905395508	1.0179000244140626	-0.09064749908447266	0.01309969997406006	1.095800048828125
32	1.0666666666666667	-0.019268400192260744	-0.06797660064697265	1.0134299926757813	-0.03448320007324219	-0.05525730133056641	1.03493994140625	-0.05322610092163086	-0.047500099182128906	1.06177001953125	-0.06304570007324219	-0.015306300163269042	1.078260009765625	-0.00934035015106201	-0.030673900604248048	1.004239990234375	-0.025685800552368163	-0.03305110168457031	0.9905570068359375	-0.05111420059204102	-0.03470399856567383	0.9849849853515625	-0.080881103515625	-0.03053000068664551	1.0175800170898437	-0.008461859703063965	-0.01601420021057129	1.0133099975585937	-0.017639299392700196	-0.012123499870300293	0.9936170043945313	-0.044650001525878905	-0.008527560234069824	0.9802329711914063	-0.08187000274658203	-0.004350590229034424	1.0111199951171874	-0.006438950061798096	0.006622010231018066	1.0174199829101562	-0.014864399909973144	0.01262849998474121	0.998083984375	-0.04040549850463867	0.017487699508666993	0.9836929931640624	-0.07664189910888672	0.019107799530029296	1.0130900268554688	-0.020063800811767576	0.022507999420166017	1.0219500122070313	-0.024362600326538086	0.03344260025024414	1.0084199829101563	-0.04172980117797852	0.04309220123291015	0.999177001953125	-0.07053839874267578	0.04172549819946289	1.0190999755859376	-0.09185970306396485	0.013026599884033202	1.0978599853515625
33	1.1	-0.017171499252319335	-0.06675779724121093	1.0170599975585937	-0.0333489990234375	-0.054450698852539066	1.0381099853515625	-0.05342079925537109	-0.04698970031738281	1.0641300048828124	-0.06429489898681641	-0.014563300132751466	1.08018994140625	-0.0072039499282836915	-0.032970298767089845	0.992760986328125	-0.02718880081176758	-0.0343223991394043	0.984208984375	-0.05299729919433594	-0.03471760177612305	0.9838740234375	-0.07899490356445313	-0.030082799911499022	1.0183800048828124	-0.002150990009307861	-0.015804100036621093	1.00125	-0.017412399291992186	-0.011273099899291992	0.9850239868164062	-0.04689509963989258	-0.007322810173034668	0.9778070068359375	-0.08032469940185546	-0.003941009998321534	1.01277001953125	-0.000885269999504089	0.008805210113525391	1.0033699951171875	-0.015516799926757812	0.015295399665832519	0.9878380126953125	-0.04341529846191406	0.01962310028076172	0.9802239990234375	-0.07495780181884766	0.019291700363159178	1.0145900268554688	-0.015407099723815917	0.02688960075378418	1.0126599731445312	-0.024099800109863283	0.03783929824829101	1.001510009765625	-0.04402370071411133	0.046142501831054686	0.996593017578125	-0.06765190124511719	0.041757301330566404	1.0205700073242188	-0.0938573989868164	0.013148799896240234	1.0998199462890625
34	1.1333333333333333	-0.015401599884033203	-0.06523809814453126	1.020739990234375	-0.032822799682617185	-0.05316120147705078	1.04118994140625	-0.05384140014648438	-0.046020900726318356	1.0664200439453124	-0.06562930297851563	-0.013625100135803222	1.0818499755859374	-0.006528039932250976	-0.034096298217773435	0.983468994140625	-0.02855109977722168	-0.03456010055541992	0.9801909790039063	-0.05371829986572266	-0.03410409927368164	0.984280029296875	-0.07750589752197265	-0.02931559944152832	1.0202000122070312	0.002928030014038086	-0.013887999534606933	0.9890900268554688	-0.017645700454711914	-0.00951509952545166	0.9787520141601562	-0.048076099395751956	-0.005860849857330323	0.977676025390625	-0.0787345962524414	-0.003169790029525757	1.0140599975585938	0.0017968900203704829	0.01233240032196045	0.99239599609375	-0.016896699905395506	0.018484100341796875	0.9812969970703125	-0.045748199462890625	0.022024700164794922	0.9792769775390625	-0.07335230255126954	0.019885799407958985	1.0161699829101563	-0.013066399574279785	0.03206570053100586	1.0061099853515625	-0.025216100692749023	0.04251620101928711	0.9976729736328125	-0.04597710037231445	0.04903440093994141	0.9964539794921875	-0.06588719940185547	0.04238150024414063	1.0223499755859375	-0.09597930145263672	0.013567500114440918	1.1015999755859376
35	1.1666666666666667	-0.01409689998626709	-0.06382379913330079	1.0246700439453125	-0.03214070129394531	-0.05176060104370117	1.04452001953125	-0.05428549957275391	-0.044858501434326174	1.06893994140625	-0.06655670166015625	-0.012802499771118164	1.083760009765625	-0.008560359954833984	-0.03494789886474609	0.9753099975585937	-0.031192899703979492	-0.034615798950195314	0.9767379760742188	-0.05533349990844726	-0.033516300201416015	0.9849600219726562	-0.07639739990234375	-0.02842569923400879	1.02152001953125	0.0037626099586486814	-0.011256400108337403	0.9777780151367188	-0.01947990036010742	-0.007210229873657227	0.973489013671875	-0.04981290054321289	-0.004090260028839112	0.9780570068359375	-0.07752639770507813	-0.0024280600547790516	1.0159500122070313	0.0020890200138092042	0.01619379997253418	0.98327197265625	-0.019160400390625	0.021650999069213868	0.9767420043945313	-0.04808470153808594	0.024310800552368166	0.9797310180664063	-0.07217310333251953	0.020641599655151367	1.017969970703125	-0.012167099952697755	0.037572898864746095	1.0016500244140625	-0.026624799728393555	0.04691719818115234	0.995989990234375	-0.04778300094604492	0.05170650100708008	0.9977940063476562	-0.06479509735107422	0.04299480056762695	1.024239990234375	-0.09785230255126953	0.014131099700927734	1.103530029296875
